# xmcd CD database file
# Copyright (C) 1993-1998 Ti Kan
#
# Track frame offsets:
#	150
#	9385
#	24388
#	34810
#	46063
#	61363
#	70813
#	86413
#	96310
#	109585
#	123313
#	137638
#	152188
#	164863
#	181888
#	194788
#	206863
#	220213
#	233938
#	248863
#
# Disc length: 3543 seconds
#
# Revision: 1
# Processed by: cddbd v1.4b41PL1 Copyright (c) Steve Scherf et al.
# Submitted via: CDValet v3.31 - Copyright (c) 1997 Greg Leichner
#
DISCID=200dd514
DTITLE=Marty Robbins - Songs of Faith and Inspiration
DYEAR=1900
DGENRE=
TTITLE0=There's Power In The Blood
TTITLE1=The Great Speckled Bird
TTITLE2=Have Thine Own Way, Lord
TTITLE3=The Little Green Valley
TTITLE4=With His Hand On My Shoulder
TTITLE5=When The Roll Is Called Up Yonder
TTITLE6=A LIttle Spot In Heaven
TTITLE7=You Gotta Climb
TTITLE8=Kneel And Let The Lord Take Your Load
TTITLE9=God Understands
TTITLE10=The Master's Call
TTITLE11=Will The Cirlce Be Unbroken
TTITLE12=Wait A Little Longer Please Jesus
TTITLE13=An Evening Prayer
TTITLE14=What God Has Done
TTITLE15=Almost Persuaded
TTITLE16=Blessed Jesus, Should I Fall Don't Let Me Lay
TTITLE17=Who At My Door Is Standing
TTITLE18=The Master's Touch
TTITLE19=Oh, My PaPa
EXTD=Producer's Note: Every effort has been made to preserve th
EXTD=e integrity of the original recordings. The listener shoul
EXTD=d be aware, however, that these transfers contain imperfec
EXTD=tions which were inherent in the recording equipment and t
EXTD=echniques of that tiime.
EXTT0=L.E. Jones
EXTT1=Traditional
EXTT2=Pollard-Stebbins
EXTT3=C.J. Robison
EXTT4=Marty Robbins
EXTT5=J.M. Black
EXTT6=Marty Robbins
EXTT7=Margaret Yeargin
EXTT8=Marty Robbins
EXTT9=Marty Robbins
EXTT10=Marty Robbins
EXTT11=Habershon-Gabriel
EXTT12=H. Houser-C. Smith
EXTT13=C. M. Batersby-C. Gabriel
EXTT14=Martin Robinson-Ronnie Robinson
EXTT15=P. P. Bliss
EXTT16=Marty Robbins
EXTT17=Eddie Arnold
EXTT18=H. Hanewinkel-T. Lang
EXTT19=J. Turner-G. Parsons-P. Burkhard
PLAYORDER=
